<svg xmlns="http://www.w3.org/2000/svg" xmlns:xlink="http://www.w3.org/1999/xlink" zoomAndPan="magnify" preserveAspectRatio="xMidYMid meet" version="1.0" viewBox="43.78 140.62 284.2 93.73"><defs><g/><clipPath id="86ba072403"><path d="M 43.648438 154 L 123.148438 154 L 123.148438 221 L 43.648438 221 Z M 43.648438 154 " clip-rule="nonzero"/></clipPath><clipPath id="34ae6a7750"><path d="M 81 140.636719 L 86 140.636719 L 86 149 L 81 149 Z M 81 140.636719 " clip-rule="nonzero"/></clipPath><clipPath id="42dd7ffd61"><path d="M 81 226 L 86 226 L 86 234.386719 L 81 234.386719 Z M 81 226 " clip-rule="nonzero"/></clipPath></defs><path fill="#ffffff" d="M 112.984375 178.5 L 105.90625 178.5 C 104.175781 178.5 102.765625 177.089844 102.765625 175.359375 L 102.765625 173.050781 C 102.765625 171.316406 104.175781 169.910156 105.90625 169.910156 L 112.984375 169.910156 C 114.714844 169.910156 116.125 171.316406 116.125 173.050781 L 116.125 175.359375 C 116.128906 177.089844 114.714844 178.5 112.984375 178.5 Z M 106.222656 175.046875 L 112.679688 175.046875 L 112.679688 173.359375 L 106.222656 173.359375 Z M 106.222656 175.046875 " fill-opacity="1" fill-rule="nonzero"/><g clip-path="url(#86ba072403)"><path fill="#ffffff" d="M 115.953125 164.902344 L 99.257812 164.902344 L 97.117188 157.644531 C 96.558594 155.765625 94.648438 154.445312 92.46875 154.445312 L 74.675781 154.445312 C 72.496094 154.445312 70.582031 155.757812 70.027344 157.644531 L 67.886719 164.898438 L 63.449219 164.898438 L 63.449219 162.214844 C 63.449219 160.632812 62.160156 159.347656 60.578125 159.347656 L 53.617188 159.347656 C 52.03125 159.347656 50.75 160.636719 50.75 162.214844 L 50.75 164.941406 C 46.882812 165.183594 43.804688 168.367188 43.804688 172.289062 L 43.804688 213.144531 C 43.804688 217.21875 47.117188 220.53125 51.191406 220.53125 L 115.953125 220.53125 C 120.027344 220.53125 123.339844 217.21875 123.339844 213.144531 L 123.339844 172.289062 C 123.339844 168.214844 120.027344 164.902344 115.953125 164.902344 Z M 73.339844 158.621094 C 73.445312 158.265625 73.976562 157.898438 74.679688 157.898438 L 92.46875 157.898438 C 93.175781 157.898438 93.703125 158.265625 93.808594 158.617188 L 95.660156 164.898438 L 71.488281 164.898438 Z M 54.195312 162.804688 L 59.996094 162.804688 L 59.996094 164.902344 L 54.195312 164.902344 Z M 51.191406 168.351562 L 115.953125 168.351562 C 118.125 168.351562 119.890625 170.117188 119.890625 172.289062 L 119.890625 179.984375 L 100.117188 179.984375 C 96.328125 174.78125 90.207031 171.382812 83.289062 171.382812 C 76.375 171.382812 70.257812 174.78125 66.464844 179.984375 L 47.253906 179.984375 L 47.253906 172.289062 C 47.253906 170.117188 49.019531 168.351562 51.191406 168.351562 Z M 83.296875 174.832031 C 92.878906 174.832031 100.675781 182.632812 100.675781 192.214844 C 100.675781 201.796875 92.878906 209.59375 83.296875 209.59375 C 73.710938 209.59375 65.914062 201.796875 65.914062 192.214844 C 65.914062 182.632812 73.710938 174.832031 83.296875 174.832031 Z M 115.953125 217.082031 L 51.191406 217.082031 C 49.019531 217.082031 47.253906 215.316406 47.253906 213.144531 L 47.253906 183.433594 L 64.429688 183.433594 C 63.179688 186.105469 62.464844 189.074219 62.464844 192.214844 C 62.464844 203.699219 71.808594 213.046875 83.296875 213.046875 C 94.78125 213.046875 104.125 203.699219 104.125 192.214844 C 104.125 189.074219 103.410156 186.105469 102.160156 183.433594 L 119.890625 183.433594 L 119.890625 213.144531 C 119.890625 215.316406 118.125 217.082031 115.953125 217.082031 Z M 115.953125 217.082031 " fill-opacity="1" fill-rule="nonzero"/></g><path fill="#ffffff" d="M 88.367188 159.417969 L 78.777344 159.417969 C 77.820312 159.417969 77.046875 160.191406 77.046875 161.148438 C 77.046875 162.101562 77.820312 162.875 78.777344 162.875 L 88.375 162.875 C 89.328125 162.875 90.101562 162.101562 90.101562 161.148438 C 90.101562 160.191406 89.324219 159.417969 88.367188 159.417969 Z M 88.367188 159.417969 " fill-opacity="1" fill-rule="nonzero"/><path fill="#ffffff" d="M 83.296875 208.089844 C 74.539062 208.089844 67.417969 200.964844 67.417969 192.214844 C 67.417969 183.457031 74.542969 176.335938 83.296875 176.335938 C 92.050781 176.335938 99.171875 183.460938 99.171875 192.214844 C 99.171875 200.964844 92.046875 208.089844 83.296875 208.089844 Z M 83.296875 179.789062 C 76.441406 179.789062 70.867188 185.359375 70.867188 192.214844 C 70.867188 199.066406 76.441406 204.640625 83.296875 204.640625 C 90.148438 204.640625 95.722656 199.066406 95.722656 192.214844 C 95.722656 185.359375 90.148438 179.789062 83.296875 179.789062 Z M 83.296875 179.789062 " fill-opacity="1" fill-rule="nonzero"/><path fill="#ffffff" d="M 73.386719 193.9375 C 72.433594 193.9375 71.660156 193.164062 71.660156 192.210938 C 71.660156 185.796875 76.875 180.578125 83.289062 180.578125 C 84.246094 180.578125 85.019531 181.351562 85.019531 182.308594 C 85.019531 183.261719 84.246094 184.035156 83.289062 184.035156 C 78.78125 184.035156 75.109375 187.703125 75.109375 192.214844 C 75.109375 193.164062 74.34375 193.9375 73.386719 193.9375 Z M 73.386719 193.9375 " fill-opacity="1" fill-rule="nonzero"/><path fill="#ffffff" d="M 54.011719 214.535156 C 51.359375 214.535156 49.203125 212.375 49.203125 209.722656 C 49.203125 207.070312 51.359375 204.914062 54.011719 204.914062 C 56.667969 204.914062 58.824219 207.070312 58.824219 209.722656 C 58.824219 212.375 56.667969 214.535156 54.011719 214.535156 Z M 54.011719 208.363281 C 53.265625 208.363281 52.652344 208.972656 52.652344 209.722656 C 52.652344 210.472656 53.265625 211.082031 54.011719 211.082031 C 54.761719 211.082031 55.375 210.472656 55.375 209.722656 C 55.375 208.972656 54.761719 208.363281 54.011719 208.363281 Z M 54.011719 208.363281 " fill-opacity="1" fill-rule="nonzero"/><g clip-path="url(#34ae6a7750)"><path fill="#ffffff" d="M 83.382812 148.882812 C 82.425781 148.882812 81.652344 148.109375 81.652344 147.15625 L 81.652344 142.363281 C 81.652344 141.410156 82.425781 140.636719 83.382812 140.636719 C 84.335938 140.636719 85.109375 141.410156 85.109375 142.363281 L 85.109375 147.160156 C 85.105469 148.109375 84.332031 148.882812 83.382812 148.882812 Z M 83.382812 148.882812 " fill-opacity="1" fill-rule="nonzero"/></g><path fill="#ffffff" d="M 74.914062 151.511719 C 74.472656 151.511719 74.03125 151.34375 73.695312 151.007812 L 70.304688 147.617188 C 69.632812 146.945312 69.632812 145.851562 70.304688 145.179688 C 70.976562 144.507812 72.070312 144.507812 72.742188 145.179688 L 76.132812 148.566406 C 76.804688 149.242188 76.804688 150.332031 76.132812 151.007812 C 75.796875 151.34375 75.355469 151.511719 74.914062 151.511719 Z M 74.914062 151.511719 " fill-opacity="1" fill-rule="nonzero"/><path fill="#ffffff" d="M 92.230469 151.511719 C 91.785156 151.511719 91.347656 151.34375 91.007812 151.007812 C 90.335938 150.332031 90.335938 149.242188 91.007812 148.566406 L 94.394531 145.179688 C 95.070312 144.507812 96.160156 144.507812 96.835938 145.179688 C 97.507812 145.851562 97.507812 146.945312 96.835938 147.617188 L 93.445312 151.007812 C 93.113281 151.34375 92.671875 151.511719 92.230469 151.511719 Z M 92.230469 151.511719 " fill-opacity="1" fill-rule="nonzero"/><g clip-path="url(#42dd7ffd61)"><path fill="#ffffff" d="M 83.382812 234.34375 C 82.425781 234.34375 81.652344 233.570312 81.652344 232.617188 L 81.652344 227.824219 C 81.652344 226.871094 82.425781 226.097656 83.382812 226.097656 C 84.335938 226.097656 85.109375 226.871094 85.109375 227.824219 L 85.109375 232.621094 C 85.105469 233.574219 84.332031 234.34375 83.382812 234.34375 Z M 83.382812 234.34375 " fill-opacity="1" fill-rule="nonzero"/></g><path fill="#ffffff" d="M 71.523438 230.3125 C 71.078125 230.3125 70.640625 230.144531 70.300781 229.804688 C 69.628906 229.132812 69.628906 228.039062 70.300781 227.367188 L 73.6875 223.976562 C 74.363281 223.304688 75.453125 223.304688 76.128906 223.976562 C 76.800781 224.652344 76.800781 225.742188 76.128906 226.417969 L 72.738281 229.804688 C 72.40625 230.140625 71.964844 230.3125 71.523438 230.3125 Z M 71.523438 230.3125 " fill-opacity="1" fill-rule="nonzero"/><path fill="#ffffff" d="M 95.621094 230.3125 C 95.179688 230.3125 94.738281 230.144531 94.402344 229.804688 L 91.011719 226.417969 C 90.339844 225.742188 90.339844 224.652344 91.011719 223.976562 C 91.683594 223.304688 92.777344 223.304688 93.449219 223.976562 L 96.839844 227.367188 C 97.511719 228.039062 97.511719 229.132812 96.839844 229.804688 C 96.503906 230.140625 96.0625 230.3125 95.621094 230.3125 Z M 95.621094 230.3125 " fill-opacity="1" fill-rule="nonzero"/><g fill="#ffffff" fill-opacity="1"><g transform="translate(139.017271, 211.326226)"><g><path d="M 23.410156 0 L 23.410156 -18.167969 L 8.574219 -18.167969 L 8.574219 -22.832031 L 23.410156 -22.832031 L 23.410156 -29.628906 L 1.15625 -29.628906 L 1.15625 -11.640625 L 15.992188 -11.640625 L 15.992188 -6.753906 L 1.15625 -6.753906 L 1.15625 0 Z M 23.410156 0 "/></g></g></g><g fill="#ffffff" fill-opacity="1"><g transform="translate(163.533787, 211.326226)"><g><path d="M 23.410156 0 L 23.410156 -29.628906 L 1.15625 -29.628906 L 1.15625 0 Z M 15.992188 -6.753906 L 8.574219 -6.753906 L 8.574219 -22.832031 L 15.992188 -22.832031 Z M 15.992188 -6.753906 "/></g></g></g><g fill="#ffffff" fill-opacity="1"><g transform="translate(188.094718, 211.326226)"><g><path d="M 23.410156 0 L 23.410156 -6.753906 L 8.574219 -6.753906 L 8.574219 -22.832031 L 23.410156 -22.832031 L 23.410156 -29.628906 L 1.15625 -29.628906 L 1.15625 0 Z M 23.410156 0 "/></g></g></g><g fill="#ffffff" fill-opacity="1"><g transform="translate(212.389161, 211.326226)"><g><path d="M 8.574219 0 L 8.574219 -29.628906 L 1.15625 -29.628906 L 1.15625 0 Z M 8.574219 0 "/></g></g></g><g fill="#ffffff" fill-opacity="1"><g transform="translate(222.115826, 211.326226)"><g><path d="M 23.410156 0 L 23.410156 -29.628906 L 1.15625 -29.628906 L 1.15625 0 L 8.574219 0 L 8.574219 -8.261719 L 15.992188 -8.261719 L 15.992188 0 Z M 15.992188 -15.015625 L 8.574219 -15.015625 L 8.574219 -22.832031 L 15.992188 -22.832031 Z M 15.992188 -15.015625 "/></g></g></g><g fill="#ffffff" fill-opacity="1"><g transform="translate(246.676757, 211.326226)"><g><path d="M 23.320312 0 L 23.320312 -6.753906 L 8.574219 -6.753906 L 8.574219 -29.628906 L 1.15625 -29.628906 L 1.15625 0 Z M 23.320312 0 "/></g></g></g><g fill="#ffffff" fill-opacity="1"><g transform="translate(270.882372, 211.326226)"><g><path d="M 8.574219 0 L 8.574219 -29.628906 L 1.15625 -29.628906 L 1.15625 0 Z M 8.574219 0 "/></g></g></g><g fill="#ffffff" fill-opacity="1"><g transform="translate(280.609037, 211.326226)"><g><path d="M 23.144531 0 L 23.144531 -6.753906 L 9.417969 -6.753906 L 23.144531 -23.808594 L 23.144531 -29.628906 L 0.886719 -29.628906 L 0.886719 -22.832031 L 14.75 -22.832031 L 0.886719 -5.730469 L 0.886719 0 Z M 23.144531 0 "/></g></g></g><g fill="#ffffff" fill-opacity="1"><g transform="translate(304.637004, 211.326226)"><g><path d="M 23.320312 0 L 23.320312 -6.753906 L 8.574219 -6.753906 L 8.574219 -11.640625 L 23.320312 -11.640625 L 23.320312 -18.167969 L 8.574219 -18.167969 L 8.574219 -22.832031 L 23.320312 -22.832031 L 23.320312 -29.628906 L 1.15625 -29.628906 L 1.15625 0 Z M 23.320312 0 "/></g></g></g></svg>